<svg xmlns="http://www.w3.org/2000/svg" version="1.1" xmlns:xlink="http://www.w3.org/1999/xlink" xmlns:svgjs="http://svgjs.com/svgjs" width="1024.000000pt" height="1024.000000pt"><svg version="1.0" xmlns="http://www.w3.org/2000/svg" width="1024.000000pt" height="1024.000000pt" viewBox="0 0 1024.000000 1024.000000" preserveAspectRatio="xMidYMid meet">
<metadata>
Created by potrace 1.14, written by Peter Selinger 2001-2017
</metadata>
<g transform="translate(0.000000,1024.000000) scale(0.100000,-0.100000)" fill="#000000" stroke="none">
<path d="M3920 7274 c-151 -19 -367 -84 -531 -161 -238 -112 -473 -300 -649
-521 l-65 -81 -6 127 c-8 151 -31 233 -90 321 -148 222 -437 296 -688 175 -73
-36 -187 -150 -223 -226 -61 -125 -58 -7 -58 -2085 0 -1334 3 -1918 11 -1955
6 -29 28 -89 49 -133 108 -225 368 -332 630 -259 162 46 286 166 343 333 l22
66 5 1295 5 1295 27 95 c54 198 125 328 248 451 202 204 450 299 780 299 292
0 480 -71 632 -239 99 -110 158 -246 200 -466 21 -108 22 -138 27 -1425 6
-1308 6 -1315 27 -1370 76 -198 207 -312 397 -347 277 -49 523 90 610 346 l22
66 5 1295 5 1295 27 96 c53 196 127 327 253 455 196 198 451 294 778 294 191
0 355 -37 473 -105 27 -15 85 -64 129 -109 122 -123 182 -253 232 -506 15 -76
17 -224 22 -1405 l6 -1320 26 -67 c76 -194 218 -310 415 -338 238 -34 456 73
554 273 64 130 61 75 57 1536 -4 1423 -4 1411 -57 1711 -47 260 -100 432 -187
603 -168 329 -437 551 -768 636 -177 45 -270 55 -515 55 -206 0 -248 -2 -337
-22 -183 -40 -360 -113 -538 -222 -230 -141 -482 -388 -638 -625 -32 -49 -60
-91 -61 -93 -2 -1 -15 31 -31 70 -133 345 -348 606 -605 737 -208 106 -417
151 -730 156 -113 2 -221 1 -240 -1z"></path>
</g>
</svg><style>@media (prefers-color-scheme: light) { :root { filter: none; } }
@media (prefers-color-scheme: dark) { :root { filter: invert(100%); } }
</style></svg>